<?xml version="1.0" encoding="UTF-8"?>
<svg id="_レイヤー_2" data-name="レイヤー 2" xmlns="http://www.w3.org/2000/svg" viewBox="0 0 269 386.25">
  <defs>
    <style>
      .cls-1 {
        fill: #61d773;
      }

      .cls-1, .cls-2, .cls-3 {
        stroke-width: 0px;
      }

      .cls-2 {
        fill: #174847;
      }

      .cls-3 {
        fill: #9ffc88;
      }
    </style>
  </defs>
  <g id="_レイヤー_1-2" data-name="レイヤー 1">
    <g>
      <path class="cls-2" d="M204.15,220.05c5.39-1.21,10.88-1.82,16.36-2.43,4.35-.49,7.77,1.85,8.42,5.7.66,3.88-1.75,7.2-6.23,7.96-4.77.82-9.57,1.4-14.3,2.47-20.91,4.73-38.37,15.62-53.87,30.01-7.33,6.8-13.6,14.54-19.97,22.47-1.75-1.11-2.62-2.87-3.79-4.32-13.46-16.69-29.09-30.78-48.44-40.39-10.21-5.07-21-8.36-32.33-9.8-1.72-.22-3.46-.52-5.1-1.08-3.31-1.13-5.08-4.28-4.46-7.53.62-3.24,3.43-5.45,6.92-5.39,6.52.13,12.89,1.35,19.24,2.67,22.95,6.49,42.64,18.58,60.33,35.68v-15.57c1.56-8.09-1.48-14.89-5.93-21.32-13.54-19.58-32.31-31.61-55-37.85-12.04-3.31-23.6-7.5-33.39-15.57-3.43-2.83-6.56-5.93-9.23-9.49-1.03.67-.68,1.52-.68,2.22,0,21.87.13,43.74.03,65.6-.08,15.9,12.53,31.69,25.18,34.75,5.27,1.28,10.57,1.01,15.88,1.15,6.65.17,13.4-.67,19.77,2.11,4.51,1.97,8.59,4.5,11.28,8.77,2.45,3.89,1.72,7.84-1.8,10.2-3.34,2.25-6.82,1.57-9.61-2.02-2.74-3.53-6.14-5.23-10.72-5.24-8.03-.01-16.14.86-24.08-.52-22.26-3.86-39.55-24.69-39.82-48.18-.3-25.54-.19-51.08-.26-76.63,0-2.61,1.36-4.63,3.17-6.83-4.95-9.49-9.07-19.46-10.92-30.21-.24-4.38-.47-8.76-.71-13.14-.02-8.8,0-17.61-.09-26.41-.03-2.76,1.15-4.32,3.91-4.27,24.31.43,47.97,3.78,69.56,15.96,12.08,6.81,22.26,15.82,29.67,27.6,6.61,10.52,12.02,21.57,12.28,34.44,4.51,3.16,7.83,7.43,11.6,12.04v-32.36c-9.72-3.66-17.37-10.06-23.08-18.61-7.75-11.6-11.11-24.47-10.87-38.45.24-13.85,4.63-26.2,12.09-37.67,7.07-10.88,15.72-20.34,25.47-28.86,2.58-2.26,4.61-2.34,7.29-.04,13.74,11.8,25.65,25.03,32.7,41.95,3.3,7.91,5.36,16.25,5.14,24.87-.33,12.8-2.14,25.3-9.59,36.3-6.27,9.26-13.64,17.19-24.77,20.69-.07,11.14-.54,22.04-.07,33.66,3.83-5.29,7.58-9.79,11.7-12.82,5.73-37.35,27.58-59.73,61.91-71.17,15.65-5.22,31.84-7.29,48.3-7.49,4.72-.06,5.67.87,5.68,5.5,0,6.1-.17,12.2.03,18.29.6,17.68-2.87,34.39-11.71,49.98,2.44,1.69,3.02,4.11,3.02,6.84-.04,25.84.08,51.68-.12,77.52-.18,22.82-17.82,43.76-40.12,47.56-7.06,1.2-14.32.62-21.47.43-5.45-.14-9.76,1.59-13.31,5.71-2.87,3.33-6.79,3.84-9.81,1.61-3.09-2.28-3.79-6.39-1.4-10.1,4.5-6.98,11.49-9.96,19.35-10.71,5.86-.56,11.82-.53,17.71-.24,19.01.92,34.42-16.66,34.92-33.26.69-23,.17-46.03.17-69.01-1.03-.5-1.31.36-1.72.78-10.84,11.27-24.05,18.31-39.1,22.24-13.96,3.65-27.07,9.27-38.57,18.14-11.1,8.57-19.54,19.28-24.76,32.33-1.21,3.03-.53,6.49-.46,9.76,0,4.98,0,9.95,0,15.83,5.36-5.76,10.74-10.08,16.22-14.28,13.93-10.68,29.19-18.58,46.38-22.56ZM109.39,55.21c-1.85,4.17-2.55,8.66-2.68,13.11-.3,10.76,2.56,20.7,8.73,29.62,2.96,4.28,6.55,7.88,11.48,10.88V25.07c-2.12,2.58-3.81,4.54-5.4,6.58-5.52,7.09-10.24,14.6-12.14,23.56ZM141.5,46.05c0,14.87-.01,29.74-.02,44.61,0,6.04,0,12.08,0,18.4,16.79-9.54,24.09-31.62,17.81-53.83-2.97-11.66-9.27-21.37-17.79-30.43v21.25ZM94.28,125.73c.19.12.39.23.92.55-.28-.56-.38-.76-.48-.96-5.5-10.69-13.21-19.51-23.13-26.23-16.81-11.38-35.91-15.54-55.79-17.03-.8-.06-2.11-.62-2.06,1.1-.24,9.18-.11,18.34,1.66,27.4,2.74,14.04,9.54,26.01,18.94,36.56,5.2,5.84,11.13,10.82,18.3,14.36,7.63,3.77,15.81,5.73,23.84,8.13,15.77,4.73,29.58,12.67,41.44,24.06,3.18,3.05,6.19,6.25,9.09,9.68,0-6.57,0-12.92,0-19.26,0-.82-.45-1.43-.79-2.13-4.51-9.08-11-16.75-17.55-24.33-12.25-14.17-26.46-25.48-45.22-29.86-3.4-.79-6.41-2.22-7.03-5.99-.64-3.91,1.85-6.26,4.95-8.07,1.72-.51,3.42-.43,5.16-.03,10,2.32,19.27,6.32,27.77,12.07ZM203.2,113.33l.27.03.25-.1c1.16.01,2.33.03,3.49.04,3.26,1.75,5.81,3.98,5.12,8.18-.59,3.58-3.28,5.67-7.91,6.48-1.99.35-3.96.94-5.87,1.6-11.89,4.14-21.45,11.76-30.41,20.31-10.12,9.67-18.44,20.81-26.36,32.27-.61.89-.84,1.88-.82,3,.09,6.03-.36,12.08,1.09,18.52.39-.55.64-.94.92-1.3,6.16-7.81,13.45-14.29,21.84-19.71,9.08-5.87,18.8-10.18,29.1-13.31,7.85-2.39,16-4.04,23.19-8.22,13.57-7.88,23.82-18.75,30.54-33.1,6.64-14.18,8.22-29.03,7.46-44.36.06-.54.43-1.12-.46-1.71-7.03.21-14.19,1.1-21.29,2.55-14.09,2.89-27.4,7.65-38.89,16.62-8.02,6.26-14.7,13.73-19.8,22.55-.54.93-1.62,1.75-1.13,3.09-.36-.27-.38-.04-.37.26.13-.11.24-.21.35-.3,9.02-6.4,19.04-10.58,29.68-13.38Z"/>
      <path class="cls-1" d="M204.15,220.05c-17.19,3.98-32.45,11.89-46.38,22.56-5.48,4.2-10.86,8.52-16.22,14.28,0-5.88,0-10.86,0-15.83,20.3-24.53,47-37,78.03-41.27,4.15-.57,7.43,1.68,8.29,5.53.84,3.81-1.15,7.37-5.17,8.53-3.99,1.15-8.14,1.74-12.11,2.94-2.27.68-5.1.61-6.44,3.26Z"/>
      <path class="cls-1" d="M126.94,240.5v15.57c-17.7-17.09-37.39-29.19-60.33-35.68-.82-1.71-2.61-1.83-4.08-2.4-4.89-1.91-10.1-2.56-15.15-3.84-4.59-1.16-6.6-3.65-6.39-7.66.19-3.78,2.53-6.37,6.38-6.57,6.75-.36,13.28,1.27,19.69,3.02,21.96,5.98,40.87,17.17,56.49,33.81,1.15,1.23,1.71,3,3.39,3.74Z"/>
      <path class="cls-2" d="M63.4,332.38c3.31,5.05,7.48,5.41,15.78,1.71,2.58,1.18,3.84,3.62,5.41,5.73-5.08,6.65-17.33,7.74-24.59,2.3-7.8-5.85-9.39-17.46-3.47-25.43,5.54-7.46,15.99-9.01,23.54-3.62,5.16,3.68,9.34,13.72,5.35,19.31h-22.02ZM77.03,324.58c-.85-3.61-3.8-5.53-7.82-5.24-3.24.24-5.65,2.37-5.96,5.24h13.77Z"/>
      <path class="cls-2" d="M168.11,327.8c-.01-10.11,7.76-18,17.71-17.98,10.1.02,17.94,7.93,17.96,18.13.02,9.67-7.98,17.62-17.78,17.67-9.95.05-17.87-7.84-17.88-17.82ZM185.87,336.36c4.51-.03,8.34-3.85,8.34-8.31,0-4.75-3.7-8.52-8.39-8.56-4.49-.03-8.42,4.05-8.32,8.65.1,4.6,3.82,8.26,8.37,8.22Z"/>
      <path class="cls-2" d="M223.21,313.79c3.19-2.64,6.5-4.16,10.36-3.91,7.4.48,12.36,5.57,12.49,13.03.1,5.89-.07,11.79-.21,17.69-.07,3.11-2.01,4.94-4.92,4.9-2.86-.04-4.49-1.67-4.57-4.83-.11-4.83-.05-9.67-.12-14.5-.06-4.43-2.02-6.59-5.91-6.64-3.67-.04-7.28,3.18-7.36,6.77-.1,4.64,0,9.28-.03,13.92-.02,3.36-1.81,5.36-4.67,5.3-3.15-.07-4.62-1.72-4.63-5.32-.03-8.22.02-16.44-.06-24.66-.03-2.68.12-5.18,3.34-5.85,3.17-.66,5.22.78,6.29,4.09Z"/>
      <path class="cls-2" d="M93.92,338.4c1.42-2.03,3.07-3.86,5.34-5.15,4.8,2.4,9.44,5.91,15.09,2.25-.58-2.2-2.13-2.2-3.35-2.54-3.34-.94-6.77-1.65-9.93-3.13-3.57-1.67-5.95-4.38-6.19-8.42-.24-4.17,1.92-7.23,5.34-9.34,7.05-4.36,17.5-2.11,22.42,4.82-1.19,2.19-3.21,3.62-5.24,5.17-4.17-1.93-8.18-5.56-13.09-1.67.65,1.99,2.19,2.21,3.52,2.64,2.85.92,5.8,1.54,8.58,2.62,3.81,1.48,6.67,4.05,6.95,8.44.28,4.35-2.12,7.31-5.64,9.42-7.18,4.32-18.95,1.79-23.8-5.12Z"/>
      <path class="cls-2" d="M159.68,317.26c-1.69,1.77-3.2,3.52-5.2,4.75-4.19-1.86-8.14-5.32-13.1-1.82.7,2.46,2.67,2.7,4.35,3.25,2.66.87,5.41,1.49,8.03,2.47,3.46,1.29,6.02,3.54,6.42,7.49.43,4.19-1.45,7.32-4.77,9.63-7.02,4.88-18.7,2.68-24.39-4.7,1.52-1.64,3.07-3.31,4.66-5.02,4.61,2.07,8.86,5.02,14.13,3.21.98-.34,1.23-1.14,1.05-2.26-1.52-1.35-3.66-1.35-5.52-2.02-2.37-.85-4.79-1.55-7.13-2.45-3.78-1.45-6.07-4.3-6.37-8.26-.3-3.98,1.74-7.06,5.03-9.23,7.08-4.65,18.37-2.27,22.81,4.97Z"/>
      <path class="cls-2" d="M29.78,335.84c4.89,0,9.5-.02,14.11,0,3.43.02,5.31,1.7,5.32,4.7.02,2.9-2.01,4.71-5.36,4.71-6.38,0-12.76-.03-19.14-.1-3.32-.03-4.82-1.43-4.83-4.75-.02-10.91.06-21.83.1-32.74.01-2.94,1.64-4.56,4.4-4.74,2.72-.18,4.8,1.14,5.12,4.01.31,2.77.25,5.58.26,8.38.03,6.73.01,13.46.01,20.53Z"/>
      <path class="cls-2" d="M138.88,360.35c3.87,0,7.66-.34,11.37.08,5.97.66,10.76,6.33,10.8,12.18.05,6.53-4.56,12.1-11.26,12.96-3.6.46-7.3.08-10.92.08-1.73-2.45-1.79-22.46.01-25.3ZM145.14,367.08v12.22c3.18.08,5.97-.3,7.51-3.14,1.27-2.34,1.3-4.82-.37-7.08-1.81-2.45-4.34-2.52-7.14-2.01Z"/>
      <path class="cls-2" d="M115,366.27v3.68c2.78,0,5.46-.01,8.14,0,2.03.01,3.85.59,3.76,2.99-.09,2.22-1.61,3.07-3.8,3-2.59-.09-5.19-.02-7.69-.02-.72,1.07-.38,2.04-.39,3.43,3.15,0,6.3.02,9.45,0,2.03-.02,3.77.36,3.85,2.85.08,2.57-1.44,3.63-3.84,3.64-4.16.02-8.32.03-12.48.02-2.63,0-3.93-1.45-3.95-3.97-.04-5.99-.01-11.98.03-17.97.02-2.57,1.29-3.93,3.95-3.92,4.06.02,8.12.01,12.19-.02,2.16-.02,3.65.89,3.75,3.11.1,2.35-1.52,3.14-3.62,3.16-3.07.02-6.13,0-9.34,0Z"/>
      <path class="cls-2" d="M244.55,366.41v3.47c2.55,0,5.04-.01,7.53,0,2.03.01,4.28.24,4.3,2.77.02,2.47-1.91,3.31-4.27,3.25-2.4-.06-4.8-.01-7.06-.01-.8,1.12-.45,2.09-.44,3.47,3.05,0,6.11,0,9.17,0,2.08,0,4.12.29,4.09,2.94-.03,2.57-1.55,3.72-4.19,3.64-3.77-.11-7.55.02-11.33-.01-3.71-.03-4.91-1.2-4.93-4.84-.04-5.51.02-11.03-.03-16.54-.03-2.9,1.49-4.35,4.19-4.48,4.06-.2,8.13-.21,12.2-.25,2.47-.02,4.34,1.15,4.31,3.68-.03,2.45-2.09,2.93-4.21,2.91-3.07-.03-6.15,0-9.33,0Z"/>
      <path class="cls-2" d="M80.47,369.72h9.16c0-2.28-.03-4.28,0-6.27.05-2.16,1.14-3.61,3.34-3.55,2.17.05,3.21,1.48,3.25,3.66.11,6.18.24,12.36.37,18.54.05,2.24-.78,3.86-3.22,3.95-2.54.09-4-1.26-4.08-3.85-.06-1.92-.01-3.84-.01-5.86-2.95-.53-5.7-.32-8.71-.21,0,2.17,0,4.08,0,5.99,0,2.34-.95,4.11-3.48,4.05-2.36-.05-3.62-1.51-3.59-3.99.07-6.18.11-12.37.13-18.55,0-2.18.94-3.61,3.18-3.66,2.44-.06,3.75,1.22,3.68,3.78-.05,1.9-.01,3.81-.01,5.97Z"/>
      <path class="cls-2" d="M26.06,377.77c-2.15-1.68-4.7-1.58-6.93-2.38-4.99-1.79-7.17-4.39-6.55-8.18.67-4.08,5.33-7.67,9.78-7.52,4.06.13,7.33,1.5,10.53,4.5-.72,1.67-2.13,2.82-3.2,4.15-3.48-1.08-6.69-3.93-10.29-.94.45,1.93,1.74,1.97,2.81,2.29,1.57.47,3.17.86,4.74,1.31,4.97,1.42,5.4,3.64,5.75,7.5.27,2.99-3.14,6.4-6.57,7.17-5.74,1.28-10.97.78-14.93-4.71,1.35-1.23,2.79-2.56,4.17-3.82,7.04,3.64,8.75,3.77,10.68.63Z"/>
      <path class="cls-2" d="M193.53,362c0,4.46.09,9.19-.02,13.92-.15,6.13-4.84,10.24-11.42,10.21-6.21-.03-11.15-4.49-11.38-10.48-.16-4.15-.02-8.31-.05-12.47-.01-2.15,1.09-3.28,3.16-3.31,2.03-.02,3.29,1,3.31,3.17.03,2.9,0,5.8.05,8.7.02,1.15.05,2.35.37,3.43.67,2.31,2.07,4.09,4.74,3.81,2.76-.29,4.38-2.03,4.46-4.84.09-3.28.01-6.57-.06-9.86-.04-1.74.07-3.38,1.99-4.06,1.7-.61,3.23-.27,4.85,1.77Z"/>
      <path class="cls-2" d="M64.4,364.62c-1.29,1.38-2.46,2.63-3.59,3.84-6.02-2.78-9.29-2.47-11.48,1-1.64,2.6-.91,6.51,1.62,8.69,2.42,2.1,5.31,1.51,9.59-2.04,1.33,1.48,2.67,2.97,3.97,4.41-2.73,4.52-8.11,6.41-14.14,5.13-4.78-1.01-9.1-6.65-9.37-12.23-.22-4.57,4.1-10.79,8.79-12.66,5.1-2.03,11-.56,14.62,3.85Z"/>
      <path class="cls-2" d="M215.85,379.29c2.8,0,5.49.03,8.19,0,2.29-.03,3.89,1.03,3.97,3.28.08,2.3-1.44,3.36-3.8,3.31-3.87-.08-7.73-.07-11.6-.02-2.88.04-4.23-1.21-4.22-4.18.03-6.16-.16-12.33-.12-18.49.01-1.98,1.31-3.09,3.33-3.13,2.25-.05,3.76.84,3.8,3.33.09,4.83.15,9.65.24,14.48,0,.46.13.93.2,1.43Z"/>
      <path class="cls-1" d="M255.11,83.65c.76,15.33-.82,30.18-7.46,44.36-6.72,14.36-16.97,25.22-30.54,33.1-7.19,4.18-15.33,5.83-23.19,8.22-10.3,3.13-20.01,7.44-29.1,13.31-8.38,5.42-15.68,11.9-21.84,19.71-.28.36-.53.75-.92,1.3-1.45-6.44-1-12.5-1.09-18.52-.02-1.12.21-2.11.82-3,7.92-11.46,16.23-22.6,26.36-32.27,8.95-8.55,18.52-16.17,30.41-20.31,1.91-.67,3.88-1.25,5.87-1.6,4.63-.81,7.32-2.89,7.91-6.48.69-4.2-1.86-6.42-5.12-8.18,1.16-1.74,3.19-1.66,4.85-2.06,13.18-3.14,24.43-9.77,34.38-18.74,3.06-2.76,5.78-5.89,8.66-8.85Z"/>
      <path class="cls-1" d="M61.35,113.69c-3.1,1.81-5.59,4.16-4.95,8.07.62,3.78,3.63,5.2,7.03,5.99,18.76,4.38,32.97,15.69,45.22,29.86,6.55,7.58,13.04,15.25,17.55,24.33.34.69.8,1.3.79,2.13,0,6.35,0,12.7,0,19.26-2.89-3.43-5.91-6.63-9.09-9.68-11.86-11.39-25.67-19.33-41.44-24.06-8.03-2.41-16.21-4.37-23.84-8.13-7.17-3.54-13.09-8.52-18.3-14.36-9.4-10.54-16.2-22.52-18.94-36.56-1.77-9.06-1.9-18.22-1.66-27.4.77.1,1.09.73,1.48,1.28,4.43,6.29,9.98,11.43,16.43,15.54,8.49,5.41,17.42,9.94,27.4,12.04.97.2,2.24.17,2.31,1.69Z"/>
      <path class="cls-3" d="M255.11,83.65c-2.88,2.96-5.6,6.09-8.66,8.85-9.95,8.97-21.21,15.6-34.38,18.74-1.66.4-3.69.32-4.85,2.06-1.16-.01-2.33-.03-3.49-.04-.17.02-.35.05-.52.07-10.64,2.8-20.66,6.98-29.68,13.38l.03.04c-.49-1.34.59-2.16,1.13-3.09,5.1-8.82,11.78-16.29,19.8-22.55,11.48-8.97,24.79-13.73,38.89-16.62,7.09-1.46,14.25-2.34,21.29-2.55.88.59.52,1.18.46,1.71Z"/>
      <path class="cls-3" d="M61.35,113.69c-.07-1.52-1.34-1.48-2.31-1.69-9.98-2.1-18.91-6.63-27.4-12.04-6.44-4.11-12-9.25-16.43-15.54-.38-.55-.71-1.18-1.48-1.28-.04-1.72,1.26-1.16,2.06-1.1,19.87,1.49,38.98,5.65,55.79,17.03,9.93,6.72,17.63,15.54,23.13,26.23-.15.14-.29.28-.44.42-8.51-5.75-17.77-9.75-27.77-12.07-1.74-.4-3.44-.48-5.16.03Z"/>
      <path class="cls-1" d="M159.29,55.23c6.29,22.21-1.02,44.28-17.81,53.83,0-6.32,0-12.36,0-18.4,0-14.87.01-29.74.02-44.61.94-1.13,1.43-.24,1.86.47.7,1.15,1.28,2.37,1.97,3.52,3.36,5.64,5.61,11.61,5.49,18.3-.04,2.24,0,4.49,0,6.73,3.27-5.17,5.71-10.46,7.04-16.21.29-1.26.17-2.74,1.44-3.63Z"/>
      <path class="cls-1" d="M126.92,90.03v18.79c-4.93-3-8.52-6.6-11.48-10.88-6.17-8.91-9.02-18.86-8.73-29.62.12-4.45.82-8.94,2.68-13.11.82.49,1.11,1.3,1.28,2.17,1.13,5.84,3.47,11.23,6.18,16.47.24.47.28,1.4,1.37,1.1-.94-10.45,1.13-20.04,8.18-29.1,0,2.06,0,3.3,0,4.54,0,11.99,0,23.98.04,35.97,0,1.23-.29,2.53.49,3.67Z"/>
      <path class="cls-3" d="M126.92,90.03c-.77-1.14-.48-2.44-.49-3.67-.03-11.99-.03-23.98-.04-35.97,0-1.24,0-2.47,0-4.54-7.06,9.06-9.13,18.65-8.18,29.1-1.09.3-1.12-.63-1.37-1.1-2.71-5.24-5.05-10.63-6.18-16.47-.17-.87-.45-1.68-1.28-2.17,1.9-8.96,6.62-16.47,12.14-23.56,1.59-2.04,3.28-4,5.4-6.58v64.96Z"/>
      <path class="cls-3" d="M159.29,55.23c-1.28.89-1.15,2.37-1.44,3.63-1.33,5.75-3.76,11.04-7.04,16.21,0-2.24-.04-4.49,0-6.73.13-6.69-2.12-12.66-5.49-18.3-.69-1.16-1.27-2.37-1.97-3.52-.43-.71-.92-1.6-1.86-.47,0-6.9,0-13.8,0-21.25,8.52,9.06,14.82,18.77,17.79,30.43Z"/>
      <path class="cls-3" d="M173.52,126.71c-.11.1-.22.19-.35.3,0-.3.02-.54.37-.26,0,0-.03-.04-.03-.04Z"/>
      <path class="cls-3" d="M94.72,125.31c.1.2.21.41.48.96-.53-.31-.72-.43-.92-.55.14-.14.29-.28.44-.42Z"/>
      <path class="cls-1" d="M203.2,113.33c.17-.02.35-.05.52-.07,0,0-.25.1-.25.1l-.27-.03Z"/>
    </g>
  </g>
</svg>